<svg xmlns="http://www.w3.org/2000/svg" viewBox="0 0 100 100">
  <defs>
    <linearGradient id="grad" x1="0%" y1="0%" x2="100%" y2="100%">
      <stop offset="0%" style="stop-color:#9333ea;stop-opacity:1" />
      <stop offset="100%" style="stop-color:#7c3aed;stop-opacity:1" />
    </linearGradient>
  </defs>
  <rect width="100" height="100" rx="20" fill="url(#grad)"/>
  <g fill="white">
    <!-- Book icon -->
    <path d="M25 20 L25 75 Q50 65 75 75 L75 20 Q50 30 25 20 Z" fill="none" stroke="white" stroke-width="4" stroke-linejoin="round"/>
    <line x1="50" y1="25" x2="50" y2="70" stroke="white" stroke-width="3"/>
    <!-- Book pages -->
    <path d="M30 30 Q40 35 48 30" fill="none" stroke="white" stroke-width="2" opacity="0.8"/>
    <path d="M30 40 Q40 45 48 40" fill="none" stroke="white" stroke-width="2" opacity="0.8"/>
    <path d="M30 50 Q40 55 48 50" fill="none" stroke="white" stroke-width="2" opacity="0.8"/>
    <path d="M52 30 Q60 35 70 30" fill="none" stroke="white" stroke-width="2" opacity="0.8"/>
    <path d="M52 40 Q60 45 70 40" fill="none" stroke="white" stroke-width="2" opacity="0.8"/>
    <path d="M52 50 Q60 55 70 50" fill="none" stroke="white" stroke-width="2" opacity="0.8"/>
  </g>
</svg>
